<?xml version="1.0" standalone="no"?>
<!DOCTYPE svg PUBLIC "-//W3C//DTD SVG 20010904//EN"
 "http://www.w3.org/TR/2001/REC-SVG-20010904/DTD/svg10.dtd">
<svg version="1.0" xmlns="http://www.w3.org/2000/svg"
 width="460.000000pt" height="460.000000pt" viewBox="0 0 460.000000 460.000000"
 preserveAspectRatio="xMidYMid meet">
<metadata>
Created by potrace 1.11, written by Peter Selinger 2001-2013
</metadata>
<g transform="translate(0.000000,460.000000) scale(0.100000,-0.100000)"
fill="#000000" stroke="none">
<path d="M2345 4524 c-15 -8 -31 -11 -36 -8 -5 3 -19 -2 -31 -10 -12 -9 -30
-16 -38 -16 -9 0 -29 -13 -45 -30 -16 -16 -35 -30 -42 -30 -7 0 -13 -4 -13
-10 0 -5 -7 -10 -15 -10 -8 0 -15 -4 -15 -10 0 -5 -9 -10 -19 -10 -11 0 -22
-4 -25 -9 -3 -5 -36 -27 -73 -49 -75 -44 -114 -81 -133 -127 -7 -17 -27 -37
-44 -46 -31 -17 -33 -20 -21 -51 5 -12 2 -18 -7 -18 -18 0 -48 -31 -48 -50 0
-7 -12 -38 -27 -69 -15 -31 -28 -60 -29 -66 -1 -5 -7 -32 -14 -60 -19 -82 -10
-405 11 -405 5 0 22 -14 39 -31 27 -29 30 -38 30 -98 0 -44 -3 -61 -10 -51 -7
12 -12 11 -32 -5 -13 -11 -26 -24 -30 -30 -4 -5 -13 -10 -20 -10 -9 0 -12 -16
-11 -54 2 -30 5 -56 8 -59 2 -3 17 -5 33 -4 44 1 75 -29 81 -80 1 -3 10 -4 20
-1 12 3 23 17 26 34 6 24 2 35 -20 56 -18 19 -29 23 -34 15 -6 -11 -51 -6 -51
6 0 3 6 13 14 21 7 9 18 30 24 46 10 30 10 30 11 -12 1 -24 5 -43 10 -43 19 0
52 103 56 176 2 42 9 90 14 107 6 18 13 48 17 67 3 19 7 40 8 45 5 29 34 83
56 107 35 36 47 64 55 121 3 26 10 47 14 47 5 0 19 28 31 62 13 35 30 68 38
74 9 7 12 16 7 25 -5 8 -5 11 0 7 4 -4 14 0 22 8 9 9 23 12 32 9 30 -13 81
-17 81 -7 0 6 10 8 23 5 12 -3 19 -2 15 2 -16 17 33 36 89 35 71 0 99 -5 138
-20 48 -19 112 -22 118 -6 6 15 64 32 75 21 3 -3 0 -11 -8 -16 -11 -7 -4 -8
21 -3 29 4 41 2 55 -14 11 -11 36 -22 56 -26 21 -4 44 -14 53 -22 9 -9 23 -13
35 -9 14 5 20 2 20 -9 0 -9 9 -16 20 -16 11 0 23 -7 26 -15 4 -8 10 -15 16
-15 5 0 7 4 4 9 -9 14 25 23 39 11 7 -6 15 -19 18 -29 3 -14 0 -18 -17 -14
-20 3 -20 3 -1 -6 11 -5 27 -12 36 -14 9 -3 22 -27 29 -54 7 -26 16 -52 20
-58 4 -5 7 -26 8 -45 2 -19 9 -69 16 -110 l14 -75 2 115 c1 63 4 140 7 170 3
30 5 64 5 75 1 36 -21 137 -32 150 -6 7 -10 17 -8 21 1 5 -3 19 -10 30 -6 12
-9 24 -6 27 3 3 -1 16 -9 29 -8 12 -20 40 -27 60 -6 21 -29 54 -51 75 -22 21
-50 48 -62 61 -11 12 -25 22 -31 22 -5 0 -31 18 -57 40 -26 22 -51 40 -56 40
-5 0 -35 14 -68 31 -33 17 -67 32 -76 34 -9 2 -38 13 -64 25 -26 12 -57 19
-68 16 -11 -3 -27 -1 -36 3 -32 16 -99 19 -126 5z m-540 -1444 c3 -5 1 -10 -4
-10 -6 0 -11 5 -11 10 0 6 2 10 4 10 3 0 8 -4 11 -10z"/>
<path d="M2311 3582 c-28 -19 -27 -27 7 -30 53 -4 75 -12 98 -33 28 -26 23
-39 -14 -40 -26 0 -26 -1 -4 -9 33 -14 27 -23 -13 -18 -40 5 -45 -3 -13 -17
12 -6 22 -20 23 -32 1 -13 5 -26 8 -30 4 -3 -2 -16 -13 -28 -23 -25 -18 -55
10 -55 26 0 82 25 73 33 -3 4 -2 7 4 7 6 0 25 14 43 30 18 17 30 30 27 30 -3
0 1 23 9 51 15 50 15 51 -10 74 -14 13 -26 28 -26 33 0 6 -20 19 -44 31 -51
23 -131 25 -165 3z"/>
<path d="M2801 3554 c-32 -23 -12 -34 64 -34 84 0 99 13 39 34 -60 20 -74 20
-103 0z"/>
<path d="M2738 3479 c-26 -15 -23 -74 5 -101 12 -13 22 -27 22 -32 0 -5 11
-16 24 -25 24 -15 24 -15 19 12 -5 26 -3 28 19 22 14 -3 31 -1 39 6 19 15 18
40 -1 33 -8 -4 -15 -1 -15 5 0 14 11 14 44 1 16 -6 26 -17 26 -30 0 -16 7 -20
35 -20 30 0 35 3 35 24 0 33 -38 61 -102 76 -28 7 -63 19 -77 26 -31 16 -50
17 -73 3z m201 -60 c49 -30 33 -32 -35 -4 -50 21 -54 25 -29 25 17 0 45 -9 64
-21z"/>
<path d="M2208 3470 c-15 -4 -29 -6 -32 -3 -3 3 -12 0 -20 -6 -8 -7 -20 -10
-25 -7 -13 8 -23 -10 -27 -45 -2 -18 1 -29 9 -30 6 -1 24 -2 40 -3 15 -2 27 1
27 5 0 5 6 7 13 5 6 -3 34 -7 62 -10 42 -5 47 -4 31 7 -16 12 -14 13 17 9 26
-3 36 0 41 14 4 10 1 21 -5 25 -6 4 -8 12 -5 18 5 7 -3 11 -21 12 l-28 1 25 8
c20 6 14 8 -25 8 -27 0 -62 -3 -77 -8z"/>
<path d="M1640 3383 c-59 -41 -69 -78 -55 -218 7 -80 11 -90 36 -92 17 -2 18
1 8 13 -6 8 -13 45 -16 82 -5 84 28 175 65 180 18 3 22 -1 22 -22 0 -14 5 -26
10 -26 19 0 10 35 -18 68 -27 32 -27 32 -52 15z"/>
<path d="M2500 3243 c0 -7 -7 -13 -16 -13 -25 0 -70 -52 -69 -80 2 -42 15 -69
38 -75 36 -11 77 -30 77 -36 0 -3 6 -13 13 -23 11 -15 17 -16 40 -5 22 10 26
18 24 43 -2 27 1 31 27 34 16 2 33 -2 38 -10 7 -9 8 -8 4 5 -3 10 -6 23 -6 28
0 6 -4 7 -10 4 -5 -3 -10 1 -10 9 0 8 -9 20 -20 26 -25 13 -90 -12 -90 -34 0
-29 -29 -16 -38 16 -6 23 -4 41 6 60 9 20 10 33 3 45 -6 10 -11 12 -11 6z"/>
<path d="M2726 3142 c-3 -5 -2 -19 1 -31 4 -15 12 -21 27 -19 30 4 30 52 -1
56 -11 2 -24 -1 -27 -6z"/>
<path d="M2660 3043 c0 -10 5 -25 10 -33 8 -12 10 -9 10 12 0 15 -4 30 -10 33
-5 3 -10 -2 -10 -12z"/>
<path d="M1785 2940 c3 -5 8 -10 11 -10 2 0 4 5 4 10 0 6 -5 10 -11 10 -5 0
-7 -4 -4 -10z"/>
<path d="M1834 2936 c-3 -8 -4 -21 -1 -28 3 -7 6 -2 7 12 l2 25 8 -25 c7 -23
8 -23 9 -3 1 27 -17 40 -25 19z"/>
<path d="M1745 2910 c3 -5 8 -10 11 -10 2 0 4 5 4 10 0 6 -5 10 -11 10 -5 0
-7 -4 -4 -10z"/>
<path d="M2550 2892 c-14 -2 -30 -8 -37 -14 -7 -5 -26 -7 -43 -3 -25 6 -31 3
-39 -17 -5 -13 -7 -26 -5 -29 6 -10 106 11 128 27 13 9 47 14 91 15 57 0 65 2
45 10 -27 11 -101 17 -140 11z"/>
<path d="M2735 2870 c3 -5 10 -10 15 -10 5 0 26 -11 46 -25 21 -14 42 -24 48
-22 6 2 16 -3 23 -12 11 -14 12 -13 13 5 0 27 -25 48 -46 40 -9 -4 -32 3 -51
14 -37 22 -58 26 -48 10z"/>
<path d="M1861 2774 c0 -11 3 -14 6 -6 3 7 2 16 -1 19 -3 4 -6 -2 -5 -13z"/>
<path d="M1960 2700 c0 -5 5 -10 11 -10 5 0 7 5 4 10 -3 6 -8 10 -11 10 -2 0
-4 -4 -4 -10z"/>
<path d="M2080 2696 c0 -8 4 -17 8 -20 4 -2 8 4 8 15 0 10 -4 19 -8 19 -4 0
-8 -6 -8 -14z"/>
<path d="M1848 2664 c-4 -3 0 -17 8 -30 9 -13 13 -28 9 -34 -3 -5 0 -10 7 -10
8 0 9 -3 3 -8 -5 -4 -9 -14 -9 -22 1 -8 2 -31 3 -50 1 -23 4 -31 10 -22 6 10
10 9 14 -7 3 -13 -1 -24 -9 -29 -12 -6 -12 -13 -2 -35 7 -15 19 -27 27 -27 11
0 11 -4 -2 -18 -15 -17 -15 -19 3 -32 11 -8 20 -21 20 -30 0 -13 -1 -13 -10 0
-7 11 -10 6 -10 -20 0 -26 3 -31 10 -20 8 12 10 10 10 -8 0 -17 9 -27 30 -35
33 -13 38 -22 14 -31 -9 -3 -25 5 -41 22 -25 25 -26 26 -20 5 3 -16 1 -23 -10
-23 -8 0 -11 -4 -8 -10 3 -5 -1 -10 -10 -10 -9 0 -13 5 -10 10 3 6 2 10 -4 10
-5 0 -11 6 -14 13 -2 6 -3 4 -2 -5 2 -10 -1 -21 -6 -24 -15 -9 -10 -34 6 -34
17 0 9 -29 -13 -45 -11 -9 -10 -14 5 -28 23 -20 97 -13 89 9 -3 8 1 14 9 14 8
0 15 -9 15 -20 0 -11 5 -20 10 -20 6 0 10 7 10 16 0 10 6 14 15 10 8 -3 15 -1
15 4 0 6 9 19 20 30 11 11 20 17 20 14 0 -4 6 -1 14 5 12 10 185 30 267 31 28
0 50 25 60 70 6 25 16 52 23 60 26 31 67 110 56 110 -19 0 -10 41 16 67 28 28
25 46 -3 20 -10 -8 -30 -18 -44 -22 -23 -6 -27 -2 -35 27 l-10 33 -15 -30 c-9
-18 -21 -29 -31 -27 -12 2 -15 -3 -11 -16 3 -12 -4 -26 -19 -38 -29 -24 -58
-68 -58 -90 0 -9 -10 -28 -22 -42 -16 -20 -19 -22 -14 -7 4 11 12 40 16 65 21
109 39 170 58 202 15 23 18 35 9 36 -82 10 -98 9 -111 -3 -7 -8 -16 -11 -20
-8 -3 4 -6 1 -6 -6 0 -7 -4 -9 -10 -6 -5 3 -10 3 -10 -2 0 -8 -49 -28 -97 -40
-13 -3 -29 1 -38 11 -9 9 -21 14 -26 11 -5 -4 -9 -1 -9 5 0 15 -26 41 -34 33
-3 -4 -3 8 0 25 6 28 3 33 -20 42 -34 13 -49 13 -41 0 10 -16 -7 -11 -19 6 -6
8 -15 12 -18 8z m140 -142 c-11 -5 -38 24 -38 39 0 7 10 1 23 -12 12 -13 19
-25 15 -27z m-19 -277 c1 -5 -6 -2 -15 7 -10 9 -13 21 -8 29 5 9 9 8 15 -7 4
-10 8 -23 8 -29z m-24 -115 c3 -6 -1 -7 -9 -4 -18 7 -21 14 -7 14 6 0 13 -4
16 -10z m-39 -27 c-3 -8 -1 -11 4 -8 6 3 10 1 10 -4 0 -12 -42 -15 -53 -5 -3
4 -2 15 4 25 11 21 43 14 35 -8z"/>
<path d="M2020 2561 c0 -10 39 -36 45 -29 2 2 -8 11 -21 21 -13 10 -24 13 -24
8z"/>
<path d="M2080 2559 c0 -5 5 -7 10 -4 6 3 10 8 10 11 0 2 -4 4 -10 4 -5 0 -10
-5 -10 -11z"/>
<path d="M1735 2331 c-5 -29 -16 -47 -41 -66 -42 -32 -38 -46 4 -16 30 21 78
29 67 11 -3 -5 -12 -7 -20 -3 -19 7 -19 -6 0 -31 13 -17 15 -18 15 -3 0 21 26
22 34 1 9 -24 7 -28 -9 -14 -12 10 -15 10 -15 -4 0 -8 13 -22 29 -31 28 -14
30 -14 36 6 4 11 1 27 -6 35 -10 13 -10 17 2 26 11 8 11 9 -3 4 -10 -3 -20 -1
-23 5 -4 5 -11 6 -17 3 -7 -5 -9 1 -5 15 5 20 2 22 -18 19 -23 -5 -24 -3 -18
38 7 55 -3 58 -12 5z"/>
<path d="M1702 2205 c-1 -21 3 -25 25 -25 l26 0 -23 25 c-13 14 -24 25 -25 25
0 0 -2 -11 -3 -25z"/>
<path d="M1685 2161 c-3 -5 -1 -12 5 -16 5 -3 10 1 10 9 0 18 -6 21 -15 7z"/>
<path d="M1777 2141 c-9 -16 -17 -38 -17 -49 0 -12 -5 -24 -10 -27 -15 -9 7
-35 29 -35 13 0 14 2 2 9 -11 7 -6 10 19 13 42 4 53 28 13 29 -25 0 -26 1 -8
9 19 8 19 9 -2 9 -13 1 -23 7 -23 15 0 21 21 31 31 15 4 -7 11 -10 15 -6 5 4
-1 16 -12 27 -20 20 -20 20 -37 -9z"/>
<path d="M1395 2153 c26 -20 13 -33 -33 -32 -42 0 -143 -17 -212 -36 -14 -4
-54 -9 -90 -12 -36 -3 -68 -10 -72 -16 -4 -7 -16 -6 -36 2 -25 11 -35 10 -63
-5 -33 -17 -33 -17 -11 -27 12 -6 22 -14 22 -19 0 -4 8 -8 18 -9 11 0 6 -5
-13 -14 -16 -7 -39 -11 -50 -9 -53 12 -124 14 -130 5 -3 -6 -16 -11 -29 -11
-12 0 -31 -8 -42 -18 -11 -10 -25 -17 -32 -14 -6 2 -12 -2 -12 -10 0 -7 -20
-26 -45 -43 -24 -16 -41 -33 -38 -38 3 -4 -3 -14 -13 -22 -19 -14 -28 -65 -11
-62 5 1 12 -4 15 -12 3 -10 -1 -13 -16 -9 -19 5 -20 3 -11 -20 12 -30 5 -52
-15 -52 -10 0 -13 -6 -10 -15 4 -8 1 -22 -6 -30 -7 -8 -9 -15 -4 -15 5 0 2 -5
-6 -10 -13 -9 -13 -11 0 -20 13 -9 13 -11 0 -20 -8 -5 -11 -10 -7 -10 8 0 -2
-15 -38 -54 -17 -19 -21 -36 -20 -97 0 -55 -5 -82 -17 -101 -10 -15 -18 -49
-19 -80 -2 -29 -4 -47 -7 -40 -5 16 -19 15 -26 -3 -3 -8 0 -14 6 -12 7 1 13
-7 15 -18 3 -17 2 -18 -7 -5 -9 12 -10 11 -5 -7 4 -15 0 -30 -14 -44 -12 -13
-18 -30 -15 -46 3 -14 -3 -36 -11 -50 -16 -24 -16 -25 7 -18 22 6 22 5 3 -6
-24 -15 -55 -49 -55 -61 0 -5 10 1 22 12 27 26 136 98 198 132 48 27 201 79
288 98 36 8 50 16 44 22 -6 6 -16 7 -24 2 -19 -12 -38 -14 -38 -3 0 5 8 9 18
9 14 0 15 2 2 10 -10 6 -11 10 -2 10 15 0 16 32 1 47 -10 10 -17 32 -18 61 -1
7 -6 10 -13 6 -7 -5 -9 -2 -5 8 5 15 -18 46 -35 47 -5 1 -8 3 -8 6 0 3 0 10 0
16 0 5 5 7 12 3 8 -5 9 -2 5 10 -4 10 -7 20 -7 23 0 3 -6 0 -14 -6 -12 -10
-13 -8 -9 8 3 12 8 21 12 21 11 0 11 83 -1 97 -6 8 -12 27 -12 43 -1 25 3 30
22 30 26 0 29 15 5 29 -17 10 -17 10 0 11 9 0 17 3 17 8 0 4 24 6 52 5 29 -1
53 -2 53 -3 0 -1 7 -3 15 -5 8 -2 35 -11 59 -20 62 -22 61 -12 -1 20 -74 38
-80 45 -76 77 5 30 -6 38 -16 12 -4 -9 -9 -14 -13 -11 -3 4 2 18 12 33 9 15
12 23 6 20 -6 -4 -11 -2 -11 3 0 6 3 11 8 12 68 5 80 5 76 -3 -3 -4 6 -8 20
-8 16 0 26 -6 26 -15 0 -8 5 -15 11 -15 5 0 7 -4 4 -10 -3 -5 -2 -10 4 -10 5
0 13 5 16 10 7 12 55 -34 55 -52 0 -6 25 -35 55 -65 30 -29 52 -59 49 -67 -3
-7 2 -19 11 -26 8 -7 15 -23 15 -36 0 -13 10 -45 21 -69 23 -49 22 -73 -2 -27
-21 43 -106 148 -134 166 -14 9 -36 23 -50 32 -37 24 -31 13 23 -43 148 -155
165 -178 188 -251 16 -50 52 -201 58 -242 2 -14 8 -37 14 -51 6 -15 8 -29 6
-32 -3 -3 1 -16 9 -29 8 -12 27 -75 41 -138 52 -234 73 -314 78 -304 3 5 9 72
13 149 3 77 8 158 10 180 3 22 5 59 6 82 1 23 6 40 10 37 4 -2 10 15 13 38 21
170 29 219 36 223 4 2 6 16 5 29 -4 33 20 55 28 26 3 -11 1 -20 -4 -20 -15 0
-10 -20 10 -47 11 -13 17 -31 14 -39 -3 -8 0 -14 7 -14 7 0 4 -12 -9 -33 -16
-26 -18 -36 -9 -45 9 -9 9 -12 -1 -12 -8 0 -2 -9 13 -21 14 -11 26 -24 26 -28
0 -11 -47 -31 -74 -31 -22 0 -23 -2 -15 -47 5 -25 15 -69 23 -97 42 -147 48
-175 42 -185 -4 -6 -12 -9 -17 -6 -5 4 -9 -1 -9 -9 0 -9 -11 -23 -25 -32 -25
-16 -33 -48 -15 -59 5 -3 7 -12 4 -20 -4 -8 -11 -12 -18 -8 -6 4 -5 -1 3 -10
7 -9 9 -17 4 -17 -6 0 -13 -19 -17 -42 -6 -34 -3 -45 10 -55 26 -19 31 -16 32
19 0 17 5 34 11 37 11 7 41 112 41 143 0 10 5 18 10 18 15 0 27 -36 35 -104 6
-44 4 -61 -7 -74 -9 -9 -18 -33 -21 -53 -5 -37 -5 -37 51 -62 31 -14 64 -27
72 -29 8 -2 17 -5 20 -9 7 -7 98 -45 140 -57 19 -6 76 -25 125 -42 102 -36
188 -57 290 -70 138 -18 266 -44 296 -60 9 -5 33 -12 53 -15 20 -4 39 -11 41
-16 3 -4 12 -5 21 -2 8 3 34 -4 57 -16 40 -20 54 -21 254 -19 l212 3 -53 68
c-29 38 -68 97 -86 130 -18 34 -38 69 -44 77 -50 64 -216 389 -216 423 0 7 -7
25 -15 41 -8 15 -12 32 -9 37 3 5 0 9 -7 9 -6 0 -9 8 -6 20 3 11 2 18 -3 15
-12 -7 -140 363 -140 406 0 10 -4 19 -8 19 -5 0 -13 17 -19 38 l-10 37 -23
-50 c-23 -51 -47 -85 -60 -85 -17 0 -17 40 0 67 23 38 53 130 46 142 -4 5 -1
11 6 13 7 3 9 14 4 31 -4 18 -11 25 -18 21 -30 -19 -72 -11 -96 18 -14 16 -31
27 -38 24 -8 -3 -18 4 -24 15 -6 11 -15 17 -20 14 -5 -3 -17 6 -26 20 -11 17
-29 27 -55 31 -41 7 -56 34 -19 34 11 0 20 5 20 10 0 6 6 10 13 9 6 -1 25 3
40 9 16 7 40 12 55 13 31 1 84 17 62 18 -8 0 -42 -4 -75 -9 -102 -17 -166 -22
-193 -15 -21 5 -23 8 -11 16 10 7 -4 9 -46 5 -35 -3 -52 -2 -40 3 17 7 17 8
-8 15 -16 3 -33 4 -39 0 -7 -4 -8 -3 -4 5 6 9 0 10 -20 5 -19 -5 -25 -4 -20 4
4 8 2 10 -8 6 -47 -18 -495 352 -455 377 21 13 -43 62 -88 66 -21 2 -33 0 -28
-4z m155 -188 c14 -19 14 -19 -2 -6 -10 7 -18 18 -18 24 0 6 1 8 3 6 1 -2 9
-13 17 -24z m-783 -65 c2 -23 -12 -27 -20 -6 -3 8 -1 17 6 20 7 2 12 5 12 5 1
1 1 -8 2 -19z m213 -25 c7 -8 8 -15 2 -15 -5 0 -15 7 -22 15 -7 8 -8 15 -2 15
5 0 15 -7 22 -15z m-457 -75 c-3 -12 -8 -19 -11 -16 -5 6 5 36 12 36 2 0 2 -9
-1 -20z m1367 -122 c0 -7 -10 -2 -23 10 -13 12 -33 22 -44 22 -14 0 -27 11
-37 32 -9 17 -16 33 -16 34 0 2 27 -17 60 -42 33 -25 60 -50 60 -56z m-1146
51 c4 6 12 9 17 6 14 -10 11 -25 -7 -25 -8 0 -12 -5 -8 -11 4 -8 0 -8 -15 0
-22 12 -26 23 -14 34 4 4 10 2 14 -4 5 -8 8 -8 13 0z m436 -37 c0 -15 -2 -15
-10 -2 -13 20 -13 33 0 25 6 -3 10 -14 10 -23z m-55 -72 c3 -5 1 -10 -4 -10
-6 0 -11 5 -11 10 0 6 2 10 4 10 3 0 8 -4 11 -10z m125 -10 c0 -5 -2 -10 -4
-10 -3 0 -8 5 -11 10 -3 6 -1 10 4 10 6 0 11 -4 11 -10z m-55 -40 c14 1 18
-46 9 -99 l-8 -46 -7 50 c-4 28 -10 68 -13 90 -4 23 -3 32 2 22 4 -10 12 -18
17 -17z m-65 0 c0 -5 -5 -10 -11 -10 -5 0 -7 5 -4 10 3 6 8 10 11 10 2 0 4 -4
4 -10z m909 -30 c21 -22 47 -40 59 -40 26 0 126 -60 130 -79 2 -10 -4 -12 -20
-7 -13 3 -36 6 -51 6 -16 0 -26 3 -24 8 3 4 -17 8 -43 9 -46 1 -109 25 -111
41 0 4 -2 22 -5 41 -3 29 8 61 23 61 2 0 21 -18 42 -40z m-152 -14 c-3 -7 0
-19 6 -26 10 -10 7 -10 -10 -1 -13 6 -23 16 -23 22 0 6 5 7 10 4 6 -3 10 -1
10 4 0 6 3 11 6 11 3 0 4 -6 1 -14z m-624 -30 c3 4 1 -10 -4 -31 -6 -20 -8
-42 -6 -49 3 -7 2 -28 -3 -47 l-8 -34 -2 35 c-8 130 -7 140 5 130 6 -5 15 -7
18 -4z m32 -56 c1 -10 -2 -17 -7 -14 -4 3 -8 15 -8 26 0 26 13 15 15 -12z
m665 -20 c0 -5 -7 -10 -15 -10 -8 0 -15 5 -15 10 0 6 7 10 15 10 8 0 15 -4 15
-10z m87 -3 c-4 -10 3 -12 25 -9 18 3 28 1 25 -5 -4 -6 9 -9 31 -7 48 3 142
-15 143 -27 1 -5 2 -17 3 -26 1 -10 4 -22 7 -28 7 -11 -17 -115 -29 -127 -12
-12 -62 15 -60 32 1 8 -4 25 -11 38 -10 19 -15 21 -27 11 -12 -9 -17 -10 -27
0 -7 7 -12 15 -13 19 -3 24 -17 40 -31 35 -10 -4 -14 -2 -10 4 10 15 -2 43
-18 43 -16 0 -29 35 -20 50 9 15 18 12 12 -3z m-770 -49 c-3 -8 -6 -5 -6 6 -1
11 2 17 5 13 3 -3 4 -12 1 -19z m21 -39 c8 -12 9 -18 3 -14 -7 4 -11 -6 -10
-27 1 -18 3 -25 6 -15 2 9 9 17 14 17 6 0 7 -4 4 -10 -3 -5 -2 -10 3 -10 18 0
32 -82 31 -184 -1 -59 -6 -109 -10 -112 -5 -3 -9 -40 -9 -82 0 -48 -4 -71 -9
-62 -8 14 -31 112 -36 155 -1 11 -3 20 -5 20 -10 0 -23 267 -15 313 7 37 15
40 33 11z m322 -325 c0 -2 -9 -4 -21 -4 -11 0 -18 4 -14 10 5 8 35 3 35 -6z
m-47 -50 c20 -3 37 -10 37 -14 0 -12 63 -21 70 -10 3 5 27 7 58 3 53 -6 69
-19 30 -25 -14 -2 -25 -14 -33 -37 -6 -18 -17 -38 -25 -45 -22 -17 -22 -35 0
-33 11 1 20 7 20 15 0 7 4 11 8 8 5 -3 7 -20 5 -38 -3 -18 -7 -56 -10 -84 -3
-36 -10 -54 -25 -63 -11 -7 -23 -10 -26 -6 -4 3 -1 10 7 14 10 7 10 11 -1 22
-8 8 -13 31 -13 53 2 34 0 37 -11 22 -8 -12 -11 -43 -9 -91 2 -55 -1 -77 -11
-86 -8 -7 -16 -10 -17 -8 -13 19 -30 67 -28 82 1 9 -2 17 -7 17 -5 0 -15 21
-21 48 -7 26 -21 76 -32 112 -10 36 -19 73 -19 82 0 9 -4 20 -10 23 -5 3 -10
17 -10 31 0 19 4 24 18 20 9 -3 34 -8 55 -12z m227 -245 c0 -10 -22 -17 -38
-11 -10 3 -10 7 -2 12 14 9 40 9 40 -1z"/>
<path d="M1710 2144 c0 -7 -3 -20 -6 -28 -5 -12 -2 -15 10 -10 9 3 13 11 9 18
-4 6 1 5 10 -3 14 -11 18 -11 23 3 4 9 4 20 0 23 -12 12 -46 10 -46 -3z"/>
<path d="M2342 2093 c-23 -45 -33 -121 -23 -177 13 -70 30 -102 77 -146 l38
-35 -27 35 c-15 19 -32 46 -38 60 -6 13 -15 27 -20 31 -5 3 -11 26 -12 50 -1
24 -6 47 -11 51 -6 4 -5 13 3 22 7 8 10 20 7 25 -4 5 1 28 10 51 17 41 14 67
-4 33z"/>
<path d="M1820 2040 c-13 -8 -12 -10 3 -10 9 0 17 5 17 10 0 12 -1 12 -20 0z"/>
<path d="M1846 2033 c-3 -7 -15 -13 -26 -13 -11 0 -20 -6 -20 -12 0 -15 63
-58 84 -58 8 0 17 -6 19 -12 4 -10 6 -10 6 0 1 6 6 12 12 12 5 0 8 -4 4 -9 -3
-5 -1 -12 5 -16 5 -3 10 0 10 7 0 10 2 11 8 0 5 -8 16 -10 28 -5 26 10 48 32
39 41 -3 4 -13 -2 -21 -13 -14 -19 -15 -18 -8 10 4 17 12 33 18 37 8 5 7 8 -1
8 -7 0 -13 6 -13 14 0 8 -7 16 -15 20 -8 3 -15 1 -15 -5 0 -7 -7 -8 -17 -4
-32 13 -92 12 -97 -2z m114 -27 c0 -3 -4 -8 -10 -11 -5 -3 -10 -1 -10 4 0 6 5
11 10 11 6 0 10 -2 10 -4z"/>
<path d="M818 2013 c7 -3 16 -2 19 1 4 3 -2 6 -13 5 -11 0 -14 -3 -6 -6z"/>
<path d="M3486 1963 c-6 -14 -5 -15 5 -6 7 7 10 15 7 18 -3 3 -9 -2 -12 -12z"/>
<path d="M2361 1914 c0 -11 3 -14 6 -6 3 7 2 16 -1 19 -3 4 -6 -2 -5 -13z"/>
<path d="M3050 1919 c0 -6 -6 -9 -14 -6 -14 5 -51 -59 -70 -121 -8 -25 20 -81
33 -66 4 5 18 43 31 84 12 41 26 79 31 85 12 12 11 35 -1 35 -5 0 -10 -5 -10
-11z"/>
<path d="M3461 1908 c0 -10 -4 -18 -8 -18 -23 -1 -34 -24 -48 -95 -15 -82 -37
-287 -30 -293 1 -2 8 30 15 70 12 72 23 125 40 183 5 17 12 48 16 70 4 22 11
43 16 46 6 4 8 17 5 30 -2 14 -5 17 -6 7z"/>
<path d="M2916 1881 c-12 -13 -15 -27 -11 -41 7 -21 7 -21 19 -3 16 23 26 63
17 63 -5 0 -16 -9 -25 -19z"/>
<path d="M3492 1833 c-19 -52 -32 -96 -29 -100 7 -6 57 99 52 107 -3 5 1 11 7
13 9 4 7 6 -3 6 -9 1 -21 -11 -27 -26z"/>
<path d="M3340 1804 c0 -14 -4 -23 -9 -20 -22 14 -42 -35 -52 -125 -6 -52 -14
-96 -18 -99 -5 -3 -5 -14 -1 -25 4 -10 2 -36 -3 -57 -11 -43 2 -68 34 -65 15
1 19 9 19 35 0 18 11 68 25 109 14 42 25 94 25 117 0 22 2 64 6 92 5 42 3 52
-10 57 -12 5 -16 0 -16 -19z"/>
<path d="M2435 1710 c3 -5 11 -10 16 -10 6 0 7 5 4 10 -3 6 -11 10 -16 10 -6
0 -7 -4 -4 -10z"/>
<path d="M465 1690 c-3 -6 1 -7 9 -4 18 7 21 14 7 14 -6 0 -13 -4 -16 -10z"/>
<path d="M3474 1647 c3 -10 -2 -25 -14 -37 -22 -22 -55 -92 -65 -135 -12 -54
-15 -61 -24 -47 -4 8 -12 -8 -19 -39 -12 -49 -11 -54 10 -77 46 -49 71 -45
144 23 l24 22 -28 -5 c-24 -5 -26 -4 -13 11 12 15 11 17 -11 17 -14 0 -27 3
-31 6 -8 8 91 107 133 133 29 18 32 21 13 21 -12 0 -34 -5 -50 -11 l-28 -10
34 35 c32 33 33 36 13 36 -12 0 -44 -16 -72 -36 -52 -37 -64 -32 -31 14 26 37
32 64 20 82 -9 13 -10 12 -5 -3z"/>
<path d="M3434 1269 c-3 -6 -1 -16 5 -22 8 -8 11 -5 11 11 0 24 -5 28 -16 11z"/>
<path d="M823 1163 c9 -2 23 -2 30 0 6 3 -1 5 -18 5 -16 0 -22 -2 -12 -5z"/>
<path d="M480 999 c-70 -31 -140 -82 -197 -142 -71 -75 -67 -86 4 -14 62 62
155 130 194 142 27 9 69 35 54 34 -6 0 -30 -9 -55 -20z"/>
<path d="M215 769 c-4 -6 -5 -12 -2 -15 2 -3 7 2 10 11 7 17 1 20 -8 4z"/>
<path d="M1486 744 c-8 -21 -8 -21 8 -21 8 0 11 8 8 19 -5 22 -8 23 -16 2z"/>
<path d="M204 630 c2 -87 7 -123 20 -145 l17 -30 -5 30 c-5 36 -24 177 -30
225 -2 19 -3 -17 -2 -80z"/>
<path d="M230 436 c0 -2 8 -10 18 -17 15 -13 16 -12 3 4 -13 16 -21 21 -21 13z"/>
<path d="M3500 51 c-22 -43 -14 -51 50 -51 52 0 60 2 58 18 -8 47 -87 71 -108
33z"/>
</g>
</svg>
