<svg xmlns="http://www.w3.org/2000/svg" xmlns:xlink="http://www.w3.org/1999/xlink" width="1920" height="1080" viewBox="0 0 1920 1080">
  <defs>
    <linearGradient id="linear-gradient" x1="0.5" x2="0.5" y2="1" gradientUnits="objectBoundingBox">
      <stop offset="0" stop-color="#703eb7"/>
      <stop offset="1" stop-color="#5842a2"/>
    </linearGradient>
    <linearGradient id="linear-gradient-2" x1="0.465" y1="0.055" x2="0.961" y2="0.835" gradientUnits="objectBoundingBox">
      <stop offset="0" stop-color="#8c3eb7" stop-opacity="0.302"/>
      <stop offset="1" stop-color="#ae3eb8"/>
    </linearGradient>
    <linearGradient id="linear-gradient-3" x1="0.465" y1="0.945" x2="0.961" y2="0.165" gradientUnits="objectBoundingBox">
      <stop offset="0" stop-color="#8c3eb7" stop-opacity="0.102"/>
      <stop offset="1" stop-color="#ae3eb8"/>
    </linearGradient>
    <linearGradient id="linear-gradient-4" x1="0.5" x2="0.5" y2="1" gradientUnits="objectBoundingBox">
      <stop offset="0" stop-color="#953eb6" stop-opacity="0.051"/>
      <stop offset="1" stop-color="#9f3db8"/>
    </linearGradient>
    <linearGradient id="linear-gradient-5" x1="0.784" y1="0.588" xlink:href="#linear-gradient-4"/>
    <linearGradient id="linear-gradient-6" x1="0.204" y1="0.5" x2="1.17" y2="0.5" xlink:href="#linear-gradient-4"/>
    <clipPath id="clip-Template_4">
      <rect width="1920" height="1080"/>
    </clipPath>
  </defs>
  <g id="Template_4" data-name="Template 4" clip-path="url(#clip-Template_4)">
    <rect width="1920" height="1080" fill="#fff"/>
    <path id="Path_10" data-name="Path 10" d="M2925.852-835.171v517.509s59.569-31.646,113.554,20.477,94.939,158.232,173.124,171.262,197.323-48.4,256.893-37.231S3589.267,1.591,3765.492,20.472s244.641-103.308,494.6-82.115S4846.225,69.54,4846.225,69.54V-835.171Z" transform="translate(-2926 835)" fill="url(#linear-gradient)"/>
    <path id="Path_11" data-name="Path 11" d="M3114.628-744.839,3985.03-93.93V-387.236l-250.658-479.52Z" transform="translate(-2066.926 664.97)" fill="url(#linear-gradient-2)"/>
    <path id="Path_12" data-name="Path 12" d="M3114.628-295.27,3986.662-938.1v272.73L3734.373-173.353Z" transform="translate(-2066.541 972.156)" fill="url(#linear-gradient-3)"/>
    <circle id="Ellipse_3" data-name="Ellipse 3" cx="100" cy="100" r="100" transform="translate(680.651 579.974)" fill="url(#linear-gradient-4)"/>
    <circle id="Ellipse_5" data-name="Ellipse 5" cx="100" cy="100" r="100" transform="translate(1283.651 160.974)" fill="url(#linear-gradient-5)"/>
    <circle id="Ellipse_4" data-name="Ellipse 4" cx="78" cy="78" r="78" transform="translate(197 105)" fill="url(#linear-gradient-6)"/>
    <g id="Path_13" data-name="Path 13" transform="translate(1800.11 540.11)" fill="none">
      <path d="M59.89,0A59.89,59.89,0,1,1,0,59.89,59.89,59.89,0,0,1,59.89,0Z" stroke="none"/>
      <path d="M 59.88964462280273 5.000007629394531 C 52.47738647460938 5.000007629394531 45.28950500488281 6.450584411621094 38.52564239501953 9.311447143554688 C 35.27428436279297 10.68666839599609 32.13796234130859 12.38904571533203 29.20380401611328 14.37132263183594 C 26.29624176025391 16.33564758300781 23.56192779541016 18.59170532226563 21.07680511474609 21.07680511474609 C 18.59170532226563 23.56192779541016 16.33564758300781 26.29624176025391 14.37132263183594 29.20380401611328 C 12.38904571533203 32.13796234130859 10.68666839599609 35.27428436279297 9.311447143554688 38.52564239501953 C 6.450584411621094 45.28950500488281 5.000007629394531 52.47738647460938 5.000007629394531 59.88964462280273 C 5.000007629394531 67.30190277099609 6.450584411621094 74.48978424072266 9.311447143554688 81.25364685058594 C 10.68666839599609 84.5050048828125 12.38904571533203 87.64132690429688 14.37132263183594 90.57548522949219 C 16.33564758300781 93.48304748535156 18.59170532226563 96.21736145019531 21.07680511474609 98.70248413085938 C 23.56192779541016 101.1875839233398 26.29624176025391 103.4436492919922 29.20380401611328 105.4079666137695 C 32.13796234130859 107.3902435302734 35.27428436279297 109.0926208496094 38.52564239501953 110.4678421020508 C 45.28950500488281 113.3287048339844 52.47738647460938 114.7792816162109 59.88964462280273 114.7792816162109 C 67.30190277099609 114.7792816162109 74.48978424072266 113.3287048339844 81.25364685058594 110.4678421020508 C 84.5050048828125 109.0926208496094 87.64132690429688 107.3902435302734 90.57548522949219 105.4079666137695 C 93.48304748535156 103.4436492919922 96.21736145019531 101.1875839233398 98.70248413085938 98.70248413085938 C 101.1875839233398 96.21736145019531 103.4436492919922 93.48304748535156 105.4079666137695 90.57548522949219 C 107.3902435302734 87.64132690429688 109.0926208496094 84.5050048828125 110.4678421020508 81.25364685058594 C 113.3287048339844 74.48978424072266 114.7792816162109 67.30190277099609 114.7792816162109 59.88964462280273 C 114.7792816162109 52.47738647460938 113.3287048339844 45.28950500488281 110.4678421020508 38.52564239501953 C 109.0926208496094 35.27428436279297 107.3902435302734 32.13796234130859 105.4079666137695 29.20380401611328 C 103.4436492919922 26.29624176025391 101.1875839233398 23.56192779541016 98.70248413085938 21.07680511474609 C 96.21736145019531 18.59170532226563 93.48304748535156 16.33564758300781 90.57548522949219 14.37132263183594 C 87.64132690429688 12.38904571533203 84.5050048828125 10.68666839599609 81.25364685058594 9.311447143554688 C 74.48978424072266 6.450584411621094 67.30190277099609 5.000007629394531 59.88964462280273 5.000007629394531 M 59.88964462280273 7.62939453125e-06 C 92.96578216552734 7.62939453125e-06 119.7792816162109 26.81350708007813 119.7792816162109 59.88964462280273 C 119.7792816162109 92.96578216552734 92.96578216552734 119.7792816162109 59.88964462280273 119.7792816162109 C 26.81350708007813 119.7792816162109 7.62939453125e-06 92.96578216552734 7.62939453125e-06 59.88964462280273 C 7.62939453125e-06 26.81350708007813 26.81350708007813 7.62939453125e-06 59.88964462280273 7.62939453125e-06 Z" stroke="none" fill="#a43db8"/>
    </g>
  </g>
</svg>
