<svg xmlns="http://www.w3.org/2000/svg" xmlns:xlink="http://www.w3.org/1999/xlink" width="1920" height="1080" viewBox="0 0 1920 1080">
  <defs>
    <linearGradient id="linear-gradient" x1="0.5" x2="0.5" y2="1" gradientUnits="objectBoundingBox">
      <stop offset="0" stop-color="#c2e7e9"/>
      <stop offset="1" stop-color="#00437a"/>
    </linearGradient>
    <linearGradient id="linear-gradient-2" x1="0.5" x2="0.5" y2="1" gradientUnits="objectBoundingBox">
      <stop offset="0" stop-color="#70aec5" stop-opacity="0.302"/>
      <stop offset="1" stop-color="#033277"/>
    </linearGradient>
    <linearGradient id="linear-gradient-3" x1="0.5" x2="0.5" y2="1" gradientUnits="objectBoundingBox">
      <stop offset="0" stop-color="#005993" stop-opacity="0.302"/>
      <stop offset="1" stop-color="#000b65"/>
    </linearGradient>
    <linearGradient id="linear-gradient-4" x1="0.5" x2="0.5" y2="1" gradientUnits="objectBoundingBox">
      <stop offset="0" stop-color="#082480"/>
      <stop offset="1" stop-color="#00035e"/>
    </linearGradient>
    <clipPath id="clip-Template_1">
      <rect width="1920" height="1080"/>
    </clipPath>
  </defs>
  <g id="Template_1" data-name="Template 1" clip-path="url(#clip-Template_1)">
    <rect width="1920" height="1080" fill="url(#linear-gradient)"/>
    <path id="Path_1" data-name="Path 1" d="M436.03,1080.919s8.516-9.1-171.484-148.192S32.727,676.364,155.455,610.909,381.818,248.182,540,234.545,910.909,289.091,1060.909,210s316.364-106.364,447.273-106.364,252.892,167.94,330,130.909,81.881-27.681,81.881-27.681l-.526,872.333Z" fill="url(#linear-gradient-2)"/>
    <path id="Path_2" data-name="Path 2" d="M734.321,1080.919S488.866,890.458,505.229,745.912s220.91-60,441.82-106.364,270-155.455,398.184-160.91,218.183,193.637,362.729,188.183,211.3-189.372,211.3-189.372l1.371,602.5Z" fill="url(#linear-gradient-3)"/>
    <path id="Path_3" data-name="Path 3" d="M1126.574,1080.919c-106.364-147.574-170.183-211.393,60.273-222.029s180.819-81.546,315.547-81.546,136.727,47.174,247.642,25.872,168.944-25.872,168.944-25.872V1079.77Z" fill="url(#linear-gradient-4)"/>
  </g>
</svg>
