<svg xmlns="http://www.w3.org/2000/svg" xmlns:xlink="http://www.w3.org/1999/xlink" width="1920" height="1080" viewBox="0 0 1920 1080">
  <defs>
    <linearGradient id="linear-gradient" x1="0.352" x2="0.903" y2="0.965" gradientUnits="objectBoundingBox">
      <stop offset="0" stop-color="#ff6cb2"/>
      <stop offset="1" stop-color="#4c79e9"/>
    </linearGradient>
    <linearGradient id="linear-gradient-2" x1="0.5" x2="0.5" y2="1" gradientUnits="objectBoundingBox">
      <stop offset="0" stop-color="#6478e5" stop-opacity="0.502"/>
      <stop offset="1" stop-color="#24e1ff"/>
    </linearGradient>
    <clipPath id="clip-Template_3">
      <rect width="1920" height="1080"/>
    </clipPath>
  </defs>
  <g id="Template_3" data-name="Template 3" clip-path="url(#clip-Template_3)">
    <rect width="1920" height="1080" fill="#fff"/>
    <path id="Path_7" data-name="Path 7" d="M-2186.743,1753.246s114.588,10.425,211.544,84.689,199.311,370.418,372.3,374.179,231.276-86.494,231.276-86.494V1754.654Z" transform="translate(3291.672 -1755)" fill="url(#linear-gradient)"/>
    <path id="Path_9" data-name="Path 9" d="M-2017.253,1879.336s21.78-37.337,90.231-37.337,230.245,112.011,314.253,112.011,127.568-37.336,152.459,31.114-154.817,191.925-220.911,227.133-205.354,80.9-311.142-84.008S-2017.253,1879.336-2017.253,1879.336Z" transform="translate(3264.928 -1685.01)" fill="#ffd622" opacity="0.71"/>
    <path id="Path_8" data-name="Path 8" d="M-1506.313,1773.246S-1876.73,2006.4-1965.1,2053.41s-122.219,191.79-50.768,272.643,214.353,127.859,362.9,24.443,146.663-146.663,146.663-146.663Z" transform="translate(3426.626 -1562.068)" fill="url(#linear-gradient-2)"/>
    <circle id="Ellipse_1" data-name="Ellipse 1" cx="43" cy="43" r="43" transform="translate(125 850)" fill="#caedfe"/>
    <circle id="Ellipse_2" data-name="Ellipse 2" cx="35" cy="35" r="35" transform="translate(176 815)" fill="#ffd522"/>
  </g>
</svg>
