<svg xmlns="http://www.w3.org/2000/svg" xmlns:xlink="http://www.w3.org/1999/xlink" width="1920" height="1080" viewBox="0 0 1920 1080">
  <defs>
    <linearGradient id="linear-gradient" x1="0.5" x2="0.5" y2="1" gradientUnits="objectBoundingBox">
      <stop offset="0" stop-color="#fec6e1"/>
      <stop offset="1" stop-color="#fe9ea4"/>
    </linearGradient>
    <linearGradient id="linear-gradient-2" x1="0.5" x2="0.5" y2="1" gradientUnits="objectBoundingBox">
      <stop offset="0" stop-color="#fee7ce" stop-opacity="0.2"/>
      <stop offset="1" stop-color="#fcbaa2"/>
    </linearGradient>
    <linearGradient id="linear-gradient-3" x1="0.5" x2="0.5" y2="1" gradientUnits="objectBoundingBox">
      <stop offset="0" stop-color="#39d7fc"/>
      <stop offset="1" stop-color="#5113cb"/>
    </linearGradient>
    <clipPath id="clip-Template_5">
      <rect width="1920" height="1080"/>
    </clipPath>
  </defs>
  <g id="Template_5" data-name="Template 5" clip-path="url(#clip-Template_5)">
    <rect width="1920" height="1080" fill="#fff"/>
    <path id="Path_14" data-name="Path 14" d="M715.358,3481.731s24.534-84.115-105.144-157.715-303.926.552-188.763-197.745,251.85-54.6,392.041-191.287,456.613,270.422,736.5,243.859,567.775,497.68,125.677,537.709-637.376,250.869-823.13,93.153S715.358,3481.731,715.358,3481.731Z" transform="translate(60 -3047)" fill="url(#linear-gradient)"/>
    <path id="Path_15" data-name="Path 15" d="M577.148,3253.59s31.108-55.994-53.92-89.175S294.776,3098.071,397.5,3040.549s110.937-24.652,193.112-104.773,361.571,156.133,468.4,135.589,316.375,213.656,119.154,279.4-419.094,182.84-527.976,90.393S577.148,3253.59,577.148,3253.59Z" transform="translate(376.3 -2850.65)" fill="url(#linear-gradient-2)"/>
    <path id="Path_16" data-name="Path 16" d="M1472.59,2726.936c-66.672,36.646-129.438,135.592-50.639,277.887s424.406,239.471,329.449,23.906S1670.244,2896.7,1574.862,2821.5,1539.262,2690.29,1472.59,2726.936Z" transform="translate(-740.727 -2049.2) rotate(-20)" fill="#ffe262" opacity="0.71"/>
    <path id="Path_18" data-name="Path 18" d="M1425.811,2720.768c-30.966,17.021-60.118,62.977-23.52,129.067s153.914,59.828,153.016,11.1-37.693-61.321-81.995-96.248S1456.777,2703.747,1425.811,2720.768Z" transform="translate(-1043.727 -1990.2) rotate(-20)" fill="#ffb162" opacity="0.43"/>
    <path id="Path_17" data-name="Path 17" d="M1472.59,2726.936c-38.5,37.81-102.485,141.128-35.812,287.567s409.579,229.791,314.622,14.225,4.371-179.8-54.22-289.739S1511.086,2689.126,1472.59,2726.936Z" transform="matrix(0.259, 0.966, -0.966, 0.259, 3995.239, -1688.359)" opacity="0.6" fill="url(#linear-gradient-3)"/>
    <circle id="Ellipse_7" data-name="Ellipse 7" cx="43" cy="43" r="43" transform="translate(343 895)" fill="#967ae2"/>
    <circle id="Ellipse_6" data-name="Ellipse 6" cx="35" cy="35" r="35" transform="translate(394 860)" fill="#fcbdcb"/>
  </g>
</svg>
